<?xml version="1.0" encoding="utf-8"?>
<!-- Generator: Adobe Illustrator 16.0.0, SVG Export Plug-In . SVG Version: 6.00 Build 0)  -->
<!DOCTYPE svg PUBLIC "-//W3C//DTD SVG 1.1//EN" "http://www.w3.org/Graphics/SVG/1.1/DTD/svg11.dtd">
<svg version="1.1" id="Layer_1" xmlns="http://www.w3.org/2000/svg" xmlns:xlink="http://www.w3.org/1999/xlink" x="0px" y="0px"
	 width="300px" height="300px" viewBox="370.5 134.5 300 300" enable-background="new 370.5 134.5 300 300" xml:space="preserve">
<g>
	<path fill="#EC1F38" d="M407.171,284.124c-1.122-2.8-3.091-3.859-6.161-3.573c-2.7,0.253-5.465,0.094-8.15-0.54
		c-0.792-0.188-1.813-0.245-1.857-1.337c-0.042-0.953,0.744-1.462,1.519-1.833c1.945-0.932,4.076-1.108,6.159-1.174
		c15.338-0.478,30.677-0.939,46.021-1.271c8.652-0.187,16.004,2.92,21.889,9.357c0.521,0.57,0.873,1.605,1.96,1.189
		c1.068-0.407,1.631-1.276,1.813-2.395c0.412-2.515-0.444-4.777-1.467-6.979c-1.062-2.284-2.22-4.527-3.774-6.532
		c0.886-1.459,1.982-2.608,3.858-2.6c7.579,13.204,15.167,26.399,22.726,39.61c1.512,2.647,3.987,2.857,6.553,2.666
		c2.423-0.183,4.783-0.853,6.904-2.044c13.843-7.771,26.966-16.636,36.357-29.657c7.624-10.57,12.031-22.738,14.617-35.555
		c0.652-3.234-0.797-5.342-2.645-7.497c2.082-0.858,4.167-1.719,6.251-2.579c1.153-0.383,2.532-0.347,1.916,1.188
		c-0.816,2.031,0.104,3.542,0.848,5.033c7.101,14.294,12.428,29.319,18.334,44.106c-1.651,2.033-4.12,1.978-6.366,2.489
		c-2.429-3.861-2.989-4.068-6.845-1.303c-8.401,6.024-15.263,13.707-22.422,21.08c-6.887,7.095-12.278,15.423-19.068,22.585
		c-1.748-0.015-3.497-0.011-5.245-0.053c-4.311-0.103-5.329,1.485-3.511,5.497c-0.87,0.458-1.744,0.922-2.616,1.378
		c-0.466-1.525-2.247-1.803-2.944-3.106c7.915-11.044,17.267-20.877,26.438-30.826c8.699-9.435,18.857-17.344,28.644-25.621
		c0.923-0.781,2.003-1.279,1.391-3.016c-2.018-5.733-3.801-11.548-5.709-17.319c-0.34-1.026-0.678-2.13-2.495-2.736
		c0.045,3.674-0.719,6.89-2.166,9.933c-2.531,5.318-5.528,10.371-8.658,15.35c-10.719,17.065-25.754,28.806-44.402,36.128
		c-2.046,0.8-4.022,1.783-6.021,2.707c-1.965,0.91-2.575,2.148-1.348,4.229c1.33,2.252,2.368,4.681,3.532,7.029
		c-1.993-0.296-3.987-0.596-5.98-0.889c-6.021-11.884-12.138-23.716-18.762-35.272c-2.443-4.266-3.183-4.131-5.877-0.202
		c-0.475,0.691-0.943,1.389-1.414,2.082c-1.378-1.106-2.757-2.213-4.134-3.32c-0.993-4.751-8.812-10.041-14.706-9.948
		c-1.636-0.763-3.419-0.971-5.163-1.034c-5.912-0.217-11.83-0.237-17.726,0.402c-5.002-0.142-10.003-0.279-14.978,0.473
		c-4.348,0.657-4.35,0.652-1.92,4.174C409.299,283.104,408.235,283.614,407.171,284.124z"/>
	<path fill="#737373" d="M621.324,283.439c23.706,5.54,40.549,27.188,40.332,51.84c-0.22,24.752-17.69,46.07-41.958,51.202
		c-24.151,5.112-48.3-6.586-59.237-28.69c-0.37-0.751-0.777-1.485-1.168-2.229c-0.022-1.151,0.106-2.333-0.091-3.458
		c-1.651-9.372-1.867-18.795-0.494-28.184c1.361-9.298,4.715-17.858,11.309-24.804c8.74-9.214,19.997-12.738,32.249-13.566
		c5.234-0.354,10.513-0.075,15.771-0.019C619.653,285.55,620.999,285.358,621.324,283.439z M608.671,287.279
		c-26.299-0.716-48.107,21.596-48.251,47.07c-0.148,26.064,21.536,47.682,47.444,47.99c25.837,0.308,48.564-20.64,48.601-47.513
		C656.504,307.74,633.759,286.729,608.671,287.279z"/>
	<path fill="#737373" d="M464.857,288.531c1.379,1.108,2.758,2.215,4.136,3.32c9.142,8.91,15.235,19.429,16.989,32.231
		c-1.879,0-3.753-0.034-5.551-0.687c-0.06-0.635-0.038-1.28-0.189-1.882c-4.42-17.836-15.217-30.107-32.737-35.607
		c-17.811-5.592-34.06-1.517-47.539,11.16c-10.952,10.303-15.844,23.397-14.438,38.669c1.125,12.218,6.254,22.5,15.222,30.557
		c12.445,11.186,27.202,15.173,43.58,11.278c14.359-3.414,25.06-11.865,31.738-25.173c1.858,0.094,3.653,0.447,5.323,1.306
		c-9.036,18.111-23.66,28.624-43.768,30.141c-22.503,1.694-39.809-7.77-51.18-27.316c-5.773-9.916-7.574-20.824-5.991-32.234
		c0.13-0.941,0.19-1.887,0.282-2.827c2.177-0.447,3.103-2.157,3.566-3.991c1.391-5.507,4.301-10.207,7.548-14.736
		c10.296-14.356,24.431-21.538,41.947-22.324c5.242-0.236,10.465,0.167,15.685,0.601
		C455.116,282.479,459.945,285.587,464.857,288.531z"/>
	<path fill="#F48823" d="M481.393,353.704c-1.67-0.857-3.465-1.212-5.323-1.305c-1.88-0.493-3.758-0.987-5.637-1.473
		c-8.859-2.853-17.718-5.71-26.578-8.561c-1.087-0.393-2.173-0.781-3.261-1.173c-2.798-1.11-5.687-2.056-7.809-4.368
		c-0.662-0.921-1.323-1.84-1.985-2.758c-0.339-0.941-0.674-1.882-1.011-2.815c0.221-1.48,0.439-2.955,0.659-4.435
		c0.883-1.124,1.764-2.25,2.647-3.381c1.149-0.211,2.113-0.78,2.979-1.547c1.188,0.01,2.293-0.273,3.299-0.913
		c1.829-0.089,3.657-0.183,5.485-0.272c1.522,0.003,3.044,0.009,4.564,0.009c0.246,0,0.493,0,0.74-0.003
		c3.735,0.267,7.467,0.637,11.204,0.766c3.791,0.129,7.59,1.634,11.382,0.021c2.161,2.255,5.019,1.68,7.684,1.899
		c1.797,0.652,3.67,0.688,5.551,0.688c2.967,0.818,6.016,0.987,9.062,1.161c1.993,0.293,3.987,0.593,5.98,0.889
		c3.684,1.157,7.349,2.363,10.797,4.144c0.698,1.304,2.479,1.581,2.942,3.106c-2.766,2.087-5.744,3.744-9.137,4.572
		c-3.032-3.562-5.542-3.983-10.967-1.823c-0.511-2.131-2.393-1.741-3.813-1.892c-2.187-0.23-4.407-0.066-6.605-0.195
		c-12.237-0.728-24.469-1.498-36.704-2.255c-0.256-0.438-0.561-0.853-0.759-1.313c-1.653-3.86-4.958-5.547-8.581-4.347
		c-3.299,1.089-5.263,4.721-4.355,8.05c0.973,3.575,4.463,5.595,8.396,4.644c1.228-0.293,2.203-0.144,3.318,0.287
		c14.575,5.647,30.018,7.58,45.233,10.488c1.113,0.213,2.518,0.293,2.072-1.665c6.853,5.066,13.263,3.161,14.569-4.341
		c3.119-2.42,6.418-4.552,10.013-6.206c0.149,1.881,0.461,3.761,0.42,5.637c-0.186,8.463-5.606,13.678-14.393,13.586
		c-6.618-0.071-13.122-1.32-19.601-2.625C483.061,353.817,482.22,353.791,481.393,353.704z"/>
	<path fill="#3D52A1" d="M456.839,252.916c-0.978-0.126-1.954-0.251-2.933-0.379c-3.393-1.419-6.786-2.843-10.178-4.261
		c-1.334-0.61-2.674-1.209-4-1.834c-3.514-1.65-3.557-1.786-0.625-4.539c4.999-4.692,11.056-6.198,17.508-4.544
		c6.286,1.612,12.567,2.219,18.993,2.144c3.831-0.045,7.244,1.078,9.877,4.022c0.617,0.69,1.563,1.404,1.176,2.405
		c-0.311,0.799-1.398,0.776-2.201,0.937c-0.717,0.146-1.461,0.287-2.186,0.257c-7.149-0.292-13.4,2.618-19.668,5.471
		C460.679,252.702,458.758,252.812,456.839,252.916z"/>
	<path fill="#3D52A1" d="M621.324,283.439c-0.325,1.919-1.671,2.11-3.287,2.091c-5.26-0.059-10.539-0.337-15.772,0.02
		c-12.252,0.828-23.51,4.353-32.25,13.565c-6.592,6.944-9.946,15.505-11.307,24.805c-1.374,9.388-1.157,18.812,0.491,28.184
		c0.197,1.123,0.068,2.307,0.093,3.455c-2.213,2-1.819,4.749-2.265,7.662c-1.523-3.653-1.858-7.275-2.343-10.848
		c-1.837-13.497-0.658-26.733,3.398-39.759c3.168-10.167,9.128-18.037,18.356-23.398c1.786-0.854,3.575-1.708,5.364-2.565
		c11.17-4.348,22.784-5.992,34.711-5.533C618.346,281.189,620.706,280.648,621.324,283.439z"/>
	<path fill="#3D52A1" d="M449.48,281.019c-5.22-0.437-10.443-0.837-15.684-0.603c-17.517,0.785-31.653,7.97-41.948,22.325
		c-3.247,4.529-6.157,9.228-7.547,14.734c-0.463,1.837-1.39,3.549-3.566,3.994c-2.327-2.02-1.27-4.275-0.202-6.294
		c1.584-2.998,3.798-5.722,3.166-9.441c1.963-2.872,1.703-5.907,0.639-8.999c-0.556-2.388,0.954-2.824,2.803-3.043
		c2.627-0.308,3.61,1.048,3.5,4.545c4.795-6.465,10.349-10.685,16.53-14.111c1.064-0.511,2.128-1.021,3.194-1.532
		c5.472-2.131,11.17-3.449,16.9-4.645c5.897-0.64,11.812-0.616,17.725-0.402c1.743,0.063,3.526,0.271,5.164,1.032
		C450.515,279.553,449.786,280.228,449.48,281.019z"/>
	<path fill="#3D52A1" d="M546.144,197.287c1.522-0.649,1.232-1.698,0.616-2.812c-3.323-6.01-8.609-10.554-17.332-6.255
		c-2.659-0.905-1.557-3.095-1.663-4.875c3.615-0.56,7.241-1.077,10.846-1.701c1.203-0.211,2.233-0.212,3.231,0.606
		c3.336,2.721,6.604,5.515,8.98,9.148c3.016,4.603,2.148,7.377-2.864,9.572C546.208,200.309,546.065,198.851,546.144,197.287z"/>
	<path fill="#3D52A1" d="M595.514,270.075c-0.051,1.628-0.763,2.492-2.501,2.163c-2.229-0.423-3.242,0.838-4.339,2.597
		c-2.171,3.485-3.688,7.49-7.244,9.979c0.068-0.963,0.135-1.928,0.202-2.895c1.629-2.344,2.825-4.896,3.529-7.658
		c0.405-1.584,1.121-3.267-0.794-4.507c-0.571-0.371-0.709-1.052-0.35-1.68c1.947-3.407,4.128-6.656,7.993-8.102
		c2.959-1.106,3.838-0.274,3.934,3.279C595.552,265.511,595.297,267.778,595.514,270.075z"/>
	<path fill="#B855A0" d="M527.765,183.345c0.106,1.78-0.994,3.969,1.663,4.875c-0.876,2.704-2.437,3.359-4.511,1.894
		c-3.224-2.273-8.822-1.774-11.398,1.116c-1.037,1.162-1.835,0.85-2.508-0.192c-1.293-2.001-1.837-4.234-1.539-6.608
		c0.154-1.232,0.853-2.032,2.169-1.405c3.465,1.649,7.02-0.239,10.511,0.347c0.422,0.068,1.128-0.231,1.367-0.588
		C525.358,180.056,526.546,181.707,527.765,183.345z"/>
	<path fill="#B855A0" d="M533.967,200.433c0.533,2.473-0.587,3.164-2.919,2.965c-3.978-0.34-7.681,0.625-10.309,3.747
		c-1.659,1.97-2.761,1.454-3.962-0.132c-1.157-1.527-1.754-3.364-2.083-5.216c-0.253-1.412,0.421-2.445,1.979-1.513
		c2.144,1.287,4.383,0.798,5.919-0.426c2.17-1.73,5.58-1.196,6.978-4.523c0.673-1.608,2.276,0.178,3.304,0.951
		C533.005,197.729,531.666,199.56,533.967,200.433z"/>
	<path fill="#BBBBBA" d="M505.629,337.956c3.393-0.828,6.372-2.488,9.136-4.572c0.874-0.456,1.748-0.92,2.615-1.378
		c2.405,0.32,4.813,0.635,7.219,0.945c-2.48,1.321-5.068,2.472-7.153,4.434c-3.596,1.654-6.895,3.787-10.015,6.208
		c-1.448,0.838-2.878,1.711-4.353,2.496c-1.736,0.929-3.578,1.187-4.667-0.78c-1.055-1.906-0.127-3.386,1.729-4.357
		C501.986,339.987,503.802,338.959,505.629,337.956z"/>
	<path fill="#646362" d="M524.599,332.951c-2.408-0.313-4.815-0.625-7.219-0.945c-1.817-4.012-0.799-5.6,3.514-5.497
		c1.748,0.042,3.497,0.036,5.245,0.053c1.255,1.038,2.812,0.513,4.216,0.796c1.956,0.392,3.417,1.233,3.135,3.506
		c-0.254,2.049-1.688,2.746-3.602,2.599C528.122,333.322,526.361,333.122,524.599,332.951z"/>
	<path fill="#B855A0" d="M551.134,222.046c-0.999,0.297-1.98,0.685-2.999,0.873c-1.716,0.315-3.201-0.144-3.804-1.925
		c-0.578-1.708,0.083-3.062,1.657-3.95c0.897-0.509,1.807-1.009,2.71-1.511c1.116-0.129,2.314-0.058,3.023-1.206
		c2.248-0.334,4.926-1.849,6.111,1.488c1.165,3.278-1.942,3.834-3.74,5.173C552.999,221.037,552.028,221.438,551.134,222.046z"/>
	<path fill="#A09FA1" d="M551.723,214.327c-0.709,1.148-1.908,1.077-3.022,1.206c-1.581-3.734-3.122-7.49-4.765-11.199
		c-0.451-1.021-0.735-2.197-1.756-2.9c-0.03-1.583-0.062-3.164-0.093-4.748c1.618-1.596,2.704,0.392,4.056,0.599
		c-0.077,1.564,0.063,3.022,1.815,3.686c-0.121,3.542,1.874,6.508,2.691,9.798C550.946,211.97,551.364,213.143,551.723,214.327z"/>
	<path fill="#A09FA1" d="M456.839,252.916c1.92-0.104,3.84-0.214,5.761-0.32c1.542,3.142,3.084,6.282,4.625,9.424
		c-0.349,1.806-2.112,1.854-3.277,2.642C461.488,260.799,458.767,257.098,456.839,252.916z"/>
	<path fill="#A09FA1" d="M551.134,222.046c0.893-0.607,1.865-1.009,2.959-1.058c1.382,2.318,1.202,5.602,4.688,6.669
		c1.089,0.336,1.052,2.343,0.964,3.722c-2.087,0.862-4.169,1.721-6.254,2.58C551.927,230.144,553.69,225.665,551.134,222.046z"/>
	<path fill="#3D52A1" d="M542.09,196.688c0.03,1.582,0.063,3.163,0.093,4.746c-2.713-0.521-5.29-2.186-8.216-1.001
		c-2.3-0.872-0.961-2.703-1.096-4.145C536.004,195.075,539.062,195.507,542.09,196.688z"/>
	<path fill="#BBBBBA" d="M463.948,264.659c1.165-0.786,2.93-0.834,3.277-2.643c1.125,0.358,2.674-0.438,3.367,1.027
		c0.794,1.677-1.124,2.231-1.609,3.394c-1.878-0.01-2.974,1.139-3.86,2.597c-1.132,0.098-2.421,1.484-3.348-0.152
		C460.423,266.499,463.28,266.105,463.948,264.659z"/>
	<path fill="#A09FA1" d="M443.728,248.276c3.393,1.418,6.786,2.842,10.178,4.261c-3.106,0.011-6.219,0.143-9.314-0.028
		c-1.273-0.068-3.02,0.188-3.408-1.869C440.767,248.423,443.093,249.287,443.728,248.276z"/>
	<path fill="#BBBBBA" d="M581.632,281.919c-0.066,0.964-0.134,1.93-0.202,2.894c0.039,0.132,0.026,0.259-0.034,0.383
		c-1.896,0.518-3.792,1.035-5.686,1.553c-1.122-0.504-1.409-1.417-1.236-2.552c2.245-0.511,4.718-0.455,6.366-2.489
		C581.104,281.778,581.37,281.848,581.632,281.919z"/>
	<path fill="#F48823" d="M384.338,296.735c1.064,3.092,1.327,6.127-0.639,8.999C382.685,302.646,383.866,299.718,384.338,296.735z"
		/>
	<path fill="#EC1F38" d="M575.71,286.748c1.894-0.518,3.79-1.035,5.686-1.553c0.136,0.486,0.273,0.971,0.411,1.458
		c-1.792,0.855-3.581,1.712-5.367,2.564C576.194,288.395,575.955,287.569,575.71,286.748z"/>
	<path fill="#F48823" d="M595.514,270.075c-0.217-2.297,0.038-4.564,0.433-6.823C597.589,265.678,597.41,268.46,595.514,270.075z"/>
	<path fill="#BBBBBA" d="M608.671,287.279c25.085-0.551,47.833,20.461,47.794,47.548c-0.038,26.873-22.764,47.82-48.601,47.513
		c-25.908-0.309-47.591-21.926-47.444-47.99C560.563,308.875,582.372,286.563,608.671,287.279z M573.868,311.783
		c-0.835,0.631-1.562,1.314-1.142,2.518c-1.163,0.513-1.565,1.629-2.043,2.654c-3.635,7.793-5.241,15.908-3.731,24.483
		c0.181,0.916,0.366,1.829,0.549,2.745c1.362,5.446,3.402,10.615,6.916,15.034c1.843,2.321,3.097,5.286,6.202,6.412
		c0.437,0.894,1.064,1.587,2.025,1.938c6.35,5.503,13.732,8.421,22.115,8.848c0.782,0.879,1.832,0.411,2.763,0.543
		c7.395-0.345,14.613-1.49,21.123-5.28c3.035-1.774,6.259-3.382,8.253-6.51c1.146-0.19,1.869-0.793,1.948-2.014
		c0.543-0.057,0.927-0.313,1.304-0.734c4.403-4.916,7.444-10.584,9.062-16.956c2.116-8.339,2.302-16.617-1.525-24.616
		c0.082-1.111-0.134-2.076-1.287-2.576c-0.144-0.703-0.149-1.469-0.445-2.102c-2.519-5.416-6.172-9.985-10.906-13.577
		c-2.696-2.046-5.132-4.697-8.812-5.098c-0.521-1.095-1.463-1.337-2.553-1.277c-0.443-0.244-0.86-0.546-1.325-0.727
		c-7.17-2.731-14.547-3.01-22.041-1.791c-1.247-0.02-2.389,0.231-3.189,1.309c-4.252,0.596-7.934,2.492-11.338,5.01
		c-1.545,0.627-3.027,1.336-3.702,3.026C578.352,305.016,575.862,308.169,573.868,311.783z"/>
	<path fill="#BBBBBA" d="M480.431,323.396c-2.664-0.223-5.523,0.353-7.684-1.902c0.936-0.986,0.771-2.096,0.351-3.223
		c-1.822-4.875-3.396-9.911-8.145-12.941c0.532-1.579-0.447-2.037-1.697-2.298c0.032-0.74-0.357-1.101-1.06-1.18
		c-0.466-1.683-1.742-2.523-3.253-3.117c-5.801-5.345-12.92-7.606-20.503-8.785c-0.949-0.012-1.897-0.026-2.849-0.037
		c-6.367-0.304-12.625,0.037-18.402,3.169c-1.208,0.013-2.184,0.587-3.118,1.269c-5.256,2.363-9.49,6.098-13.124,10.426
		c-1.888,2.251-3.958,4.568-4.501,7.688c-0.972,0.499-1.419,1.264-1.197,2.367c-4.21,6.962-4.506,14.608-3.537,22.342
		c0.389,3.112,0.615,6.459,2.875,9.062c-0.26,1.177,0.097,2.055,1.222,2.569c0.033,0.622-0.144,1.356,0.126,1.849
		c4.637,8.476,11.037,15.087,20.105,18.843c0.867,0.869,1.896,0.762,2.952,0.486c0.325,0.7,0.855,1.111,1.599,1.368
		c5.919,2.066,11.998,2.45,18.135,1.541c3.331-0.493,6.861-0.576,9.638-2.966c1.208,0.38,2.119,0.077,2.635-1.14
		c1.481,0.186,2.599-0.706,3.736-1.378c6.781-4.009,12.018-9.517,15.695-16.488c1.879,0.487,3.757,0.981,5.637,1.474
		c-6.679,13.308-17.379,21.761-31.738,25.171c-16.378,3.894-31.133-0.094-43.58-11.276c-8.968-8.059-14.099-18.339-15.222-30.557
		c-1.404-15.271,3.487-28.369,14.438-38.669c13.479-12.679,29.727-16.752,47.539-11.16c17.52,5.5,28.317,17.771,32.737,35.607
		C480.392,322.116,480.372,322.762,480.431,323.396z"/>
	<path fill="#DFCEC1" d="M492.86,347.935c0.447,1.958-0.957,1.878-2.071,1.665c-15.214-2.908-30.657-4.841-45.233-10.488
		c-1.113-0.431-2.089-0.58-3.317-0.287c-3.933,0.951-7.423-1.068-8.396-4.644c-0.908-3.331,1.056-6.961,4.355-8.05
		c3.622-1.2,6.928,0.486,8.581,4.347c0.198,0.461,0.503,0.876,0.758,1.313c-0.203,0.755-0.407,1.511-0.612,2.265
		c-1.81,3.622-1.47,4.321,2.765,4.389c6.181,0.103,12.169,1.567,18.256,2.312c7.495,0.915,14.96,2.091,22.476,2.851
		c0.448,0.899,0.218,2.241,1.628,2.513C492.074,346.835,491.817,347.673,492.86,347.935z"/>
	<path fill="#797877" d="M396.447,312.467c8.092,2.8,15.726,6.695,23.639,9.928c3.475,1.422,6.908,2.943,10.36,4.423
		c-0.221,1.479-0.44,2.954-0.659,4.435c-11.326,5.852-22.651,11.705-33.974,17.555c-1.126-0.512-1.483-1.391-1.223-2.566
		c10.935-5.675,21.868-11.351,33.475-17.374c-11.469-4.901-22.144-9.468-32.815-14.032
		C395.027,313.73,395.475,312.965,396.447,312.467z"/>
	<path fill="#A09FA1" d="M491.809,339.847c0.258-1.773,1.629-2.692,2.855-3.714c5.424-2.158,7.932-1.736,10.965,1.823
		c-1.827,1.003-3.643,2.028-5.488,2.995c-1.856,0.972-2.786,2.451-1.729,4.357c1.089,1.967,2.932,1.709,4.667,0.78
		c1.475-0.785,2.904-1.658,4.353-2.496c-1.306,7.5-7.716,9.408-14.568,4.341c-1.045-0.262-0.788-1.102-0.808-1.813
		C491.397,344.05,491.687,341.944,491.809,339.847z"/>
	<path fill="#EC1F38" d="M433.093,323.437c-6.341-9.695-12.681-19.387-19.021-29.083c0.934-0.682,1.91-1.256,3.119-1.268
		c4.08,6.33,8.099,12.702,12.263,18.976c2.182,3.287,3.99,6.843,6.711,9.768l-0.093,0.062
		C435.207,322.656,434.242,323.226,433.093,323.437z"/>
	<path fill="#797877" d="M416.042,369.5c4.917-11.812,9.836-23.62,14.754-35.433c0.665,0.92,1.325,1.84,1.987,2.758
		c-4.598,11.053-9.193,22.111-13.79,33.162C417.94,370.261,416.911,370.367,416.042,369.5z"/>
	<path fill="#EC1F38" d="M444.857,320.704c4.696-7.323,9.391-14.646,14.086-21.968c1.51,0.596,2.788,1.434,3.253,3.117
		c-0.703,1.271-2.29,2.067-2.078,3.833l0.03-0.033c-0.662-0.207-0.677,0.215-0.657,0.672l0.041-0.035
		c-0.51-0.065-0.653,0.326-0.834,0.672c-2.662,4.009-5.974,7.59-7.979,12.034l0.019-0.027c-0.89,0.242-1.176,0.94-1.315,1.741
		C447.901,320.713,446.377,320.71,444.857,320.704z"/>
	<path fill="#797877" d="M436.07,321.89l0.094-0.062c0.466-0.995,0.277-2.04,0.245-3.083c-0.285-9.61-0.548-19.221-0.818-28.83
		c0.95,0.011,1.899,0.025,2.847,0.036c0.31,10.342,0.621,20.684,0.932,31.022C438.364,321.616,437.257,321.899,436.07,321.89z"/>
	<path fill="#797877" d="M443.853,342.366c2.382,8.812,4.764,17.617,7.146,26.425c-0.515,1.217-1.426,1.52-2.632,1.14
		c-2.591-9.582-5.183-19.158-7.772-28.737C441.681,341.585,442.766,341.974,443.853,342.366z"/>
	<path fill="#797877" d="M449.421,320.713c0.139-0.801,0.425-1.499,1.315-1.741c0.528,0.816-0.438,1.142-0.574,1.738
		C449.914,320.713,449.667,320.713,449.421,320.713z"/>
	<path fill="#ABAAA8" d="M600.318,293.699c1.928,9.482,3.863,18.966,5.764,28.457c0.178,0.893,0.64,1.306,1.478,1.234
		c1.563-0.129,2.79,0.754,4.147,1.247c0.835,0.391,1.341,1.445,2.475,1.244c-0.021,0.889,0.018,1.752,0.853,2.328
		c-0.398,0.987,0.422,1.778,0.442,2.696c0.141,1.979-1.027,3.685-1.188,5.606c-0.883,0.405-1.365,1.085-1.403,2.066
		c-1.762,0.194-3.261,1.073-4.804,1.854c-0.889,0.006-1.777,0.012-2.66,0.015c-0.808-1.098-1.938-1.406-3.228-1.319
		c-0.351-0.956-1.082-1.536-1.947-1.983c0-1.032-0.371-1.882-1.24-2.481c0.13-0.945-0.141-1.798-0.599-2.61
		c0.903-1.182,0.941-2.348-0.067-3.494c0.715-0.087,1.288-0.338,1.379-1.16c0.706-0.739,1.632-1.316,1.761-2.466
		c2.194-0.577,1.51-2.333,1.249-3.612c-1.798-8.784-3.722-17.547-5.604-26.312C597.93,293.931,599.069,293.68,600.318,293.699z"/>
	<path fill="#EC1F38" d="M593.426,322.095c-2.968-5.137-6.776-9.763-9.271-15.188c-0.609-1.325-1.374-2.578-2.066-3.864
		c0.675-1.69,2.155-2.398,3.699-3.026c3.997,9.078,9.028,17.511,15.692,24.915c-0.129,1.149-1.055,1.727-1.761,2.466
		c-1.888-1.47-3.772-2.939-5.657-4.408c0.063-0.52-0.021-0.926-0.673-0.914L593.426,322.095z"/>
	<path fill="#797877" d="M612.886,338.579c0.036-0.981,0.521-1.658,1.403-2.066c4.2,3.469,7.425,7.856,11.114,11.804
		c4.561,4.87,8.972,9.886,13.443,14.838c-0.079,1.224-0.803,1.825-1.948,2.015C628.891,356.304,620.892,347.441,612.886,338.579z"/>
	<path fill="#797877" d="M605.422,340.448c0.883-0.006,1.771-0.009,2.66-0.015c-0.117,10.922-0.23,21.842-0.359,32.766
		c-0.015,1.252-0.129,2.507-0.2,3.762c-0.931-0.135-1.98,0.333-2.762-0.545C604.979,364.429,605.199,352.436,605.422,340.448z"/>
	<path fill="#797877" d="M600.247,337.146c0.864,0.447,1.597,1.027,1.945,1.983c-6.517,9.48-13.034,18.959-19.552,28.438
		c-0.957-0.351-1.587-1.043-2.023-1.938C587.161,356.137,593.705,346.641,600.247,337.146z"/>
	<path fill="#797877" d="M615.476,330.906c-0.02-0.92-0.84-1.709-0.443-2.696c10.457-3.309,20.913-6.624,31.368-9.938
		c1.15,0.5,1.367,1.465,1.285,2.576C636.947,324.201,626.217,327.552,615.476,330.906z"/>
	<path fill="#797877" d="M598.407,332.053c0.457,0.812,0.729,1.665,0.6,2.61c-10.502,3.171-21.001,6.345-31.503,9.521
		c-0.183-0.914-0.368-1.829-0.551-2.739C577.438,338.315,587.924,335.182,598.407,332.053z"/>
	<path fill="#797877" d="M614.182,325.882c-1.134,0.201-1.64-0.853-2.475-1.242c3.991-9.477,7.985-18.949,11.978-28.422
		c1.092-0.06,2.035,0.183,2.553,1.277C622.22,306.956,618.199,316.417,614.182,325.882z"/>
	<path fill="#797877" d="M594.06,322.989c1.887,1.469,3.772,2.939,5.657,4.408c-0.09,0.823-0.662,1.074-1.376,1.162
		c-8.538-4.753-17.074-9.507-25.614-14.259c-0.422-1.203,0.306-1.887,1.141-2.518c5.292,2.938,10.573,5.897,15.891,8.791
		c1.155,0.632,2.16,1.711,3.665,1.521l-0.037-0.021C593.321,322.595,593.74,322.753,594.06,322.989z"/>
	<path fill="#797877" d="M450.718,318.996c2.005-4.444,5.318-8.025,7.98-12.032c0.46,0,0.789-0.159,0.833-0.674l-0.041,0.036
		c0.449,0,0.669-0.222,0.657-0.673l-0.031,0.034c1.463-0.392,2.063-1.806,3.139-2.652c1.25,0.258,2.229,0.719,1.697,2.298
		c-3.847,3.97-7.667,7.979-11.568,11.899C452.653,317.964,452.186,319.301,450.718,318.996z"/>
	<path fill="#D5425B" d="M446.927,334.056c14.714,2.019,29.429,4.04,44.144,6.055c-0.216,1.167-0.431,2.332-0.646,3.497
		c-7.518-0.76-14.983-1.937-22.477-2.851c-6.087-0.744-12.076-2.208-18.256-2.312C445.455,338.378,445.117,337.678,446.927,334.056z
		"/>
	<path fill="#F48823" d="M490.425,343.607c0.216-1.165,0.431-2.33,0.646-3.497c0.243-0.088,0.488-0.177,0.733-0.264
		c-0.118,2.098-0.408,4.203,0.249,6.273C490.643,345.849,490.872,344.508,490.425,343.607z"/>
</g>
</svg>
