<?xml version="1.0" encoding="utf-8"?>
<!-- Generator: Adobe Illustrator 16.0.0, SVG Export Plug-In . SVG Version: 6.00 Build 0)  -->
<!DOCTYPE svg PUBLIC "-//W3C//DTD SVG 1.1//EN" "http://www.w3.org/Graphics/SVG/1.1/DTD/svg11.dtd">
<svg version="1.1" id="Layer_1" xmlns="http://www.w3.org/2000/svg" xmlns:xlink="http://www.w3.org/1999/xlink" x="0px" y="0px"
	 width="300px" height="300px" viewBox="370.5 134.5 300 300" enable-background="new 370.5 134.5 300 300" xml:space="preserve">
<g>
	
		<line fill="none" stroke="#058B98" stroke-width="6" stroke-miterlimit="10" x1="519.961" y1="371.314" x2="519.961" y2="398.314"/>
	
		<line fill="none" stroke="#058B98" stroke-width="6" stroke-miterlimit="10" x1="453.071" y1="297.174" x2="511.071" y2="401.814"/>
	
		<line fill="none" stroke="#058B98" stroke-width="6" stroke-miterlimit="10" x1="588.071" y1="297.174" x2="530.071" y2="401.814"/>
	<path fill="#E95557" d="M566.683,153.315c-34-19-113-19.5-137,58c-24,77.5,90.5,165.5,90.5,165.5
		C597.683,321.814,662.517,201.315,566.683,153.315z M521.146,277.649c-21.814,0-39.499-17.76-39.499-39.667
		c0-21.907,17.684-39.667,39.499-39.667c21.816,0,39.501,17.76,39.501,39.667S542.962,277.649,521.146,277.649z"/>
	<path fill="#058B98" d="M504.886,393.147c0,0-3.271-0.142-3.25,3.751c0.027,5.011,5.375,27.541,5.375,27.541
		s0.625,1.875,2.708,1.875c1.667,0,20,0,20,0s3.417,0.09,4.334-3.666c1.132-4.637,5.333-26.334,5.333-26.334
		s-0.334-3.278-2.667-3.306C534.386,392.98,504.886,393.147,504.886,393.147z"/>
</g>
</svg>
